<svg width="382" height="449" viewBox="0 0 382 449" fill="none" xmlns="http://www.w3.org/2000/svg">
<rect width="382" height="449" rx="20" fill="#295D4E" fill-opacity="0.1"/>
<rect x="29" y="103" width="326" height="91" rx="17" fill="#295D4E"/>
<path d="M67.7738 160.455V135.909H69.3462V160.455H67.7738ZM71.561 144.251C71.4971 143.548 71.2127 143.001 70.7077 142.611C70.2091 142.215 69.4964 142.017 68.5696 142.017C67.9559 142.017 67.4446 142.097 67.0355 142.256C66.6264 142.416 66.3196 142.637 66.115 142.918C65.9105 143.193 65.805 143.509 65.7986 143.867C65.7858 144.161 65.8434 144.42 65.9712 144.644C66.1054 144.868 66.2972 145.066 66.5465 145.238C66.8022 145.404 67.109 145.551 67.4669 145.679C67.8249 145.807 68.2276 145.919 68.675 146.015L70.3625 146.398C71.3341 146.609 72.1907 146.891 72.9321 147.242C73.68 147.594 74.3064 148.012 74.8114 148.498C75.3228 148.984 75.7095 149.543 75.9716 150.176C76.2336 150.809 76.3679 151.518 76.3743 152.305C76.3679 153.545 76.0546 154.609 75.4346 155.498C74.8146 156.386 73.9229 157.067 72.7596 157.54C71.6026 158.013 70.2059 158.249 68.5696 158.249C66.9268 158.249 65.495 158.003 64.2741 157.511C63.0532 157.019 62.104 156.271 61.4265 155.267C60.7489 154.264 60.4005 152.995 60.3814 151.461H64.9261C64.9645 152.094 65.1338 152.621 65.4343 153.043C65.7347 153.465 66.147 153.784 66.6711 154.002C67.2017 154.219 67.8153 154.328 68.512 154.328C69.1512 154.328 69.6946 154.241 70.142 154.069C70.5958 153.896 70.9442 153.657 71.1871 153.35C71.43 153.043 71.5546 152.691 71.561 152.295C71.5546 151.924 71.4396 151.608 71.2159 151.346C70.9921 151.077 70.647 150.847 70.1804 150.656C69.7201 150.457 69.1321 150.275 68.4162 150.109L66.3643 149.63C64.664 149.24 63.3249 148.61 62.3469 147.741C61.3689 146.865 60.8831 145.683 60.8895 144.193C60.8831 142.979 61.2091 141.914 61.8675 141C62.5259 140.086 63.4368 139.374 64.6001 138.862C65.7635 138.351 67.0898 138.095 68.5792 138.095C70.1005 138.095 71.4204 138.354 72.539 138.872C73.664 139.383 74.5365 140.102 75.1566 141.029C75.7766 141.956 76.093 143.03 76.1058 144.251H71.561ZM85.5853 138.095C86.6592 138.095 87.6851 138.271 88.6631 138.623C89.6411 138.968 90.5136 139.521 91.2806 140.281C92.0477 141.036 92.6517 142.029 93.0928 143.263C93.5338 144.497 93.7544 146.002 93.7544 147.779C93.7607 149.415 93.569 150.882 93.1791 152.18C92.7892 153.471 92.2298 154.571 91.5012 155.478C90.7789 156.386 89.9095 157.08 88.8932 157.559C87.8769 158.032 86.7423 158.268 85.4894 158.268C84.1088 158.268 82.8911 158.003 81.8364 157.473C80.7881 156.936 79.9475 156.213 79.3147 155.306C78.6883 154.398 78.3144 153.382 78.1929 152.257H82.8623C83.0093 152.909 83.3193 153.401 83.7923 153.733C84.2654 154.059 84.8311 154.222 85.4894 154.222C86.6911 154.222 87.5892 153.701 88.1837 152.659C88.7781 151.618 89.0754 150.202 89.0754 148.412H88.9603C88.6855 149 88.2955 149.505 87.7906 149.927C87.292 150.349 86.7135 150.672 86.0551 150.895C85.3968 151.119 84.7032 151.231 83.9745 151.231C82.7984 151.231 81.7597 150.962 80.8584 150.425C79.9635 149.888 79.2604 149.15 78.749 148.211C78.2441 147.271 77.9884 146.197 77.982 144.989C77.9756 143.634 78.292 142.439 78.9312 141.403C79.5704 140.361 80.4621 139.549 81.6063 138.968C82.7504 138.38 84.0768 138.089 85.5853 138.095ZM85.6141 141.739C85.026 141.739 84.5019 141.876 84.0416 142.151C83.5878 142.426 83.2298 142.797 82.9678 143.263C82.7057 143.73 82.5779 144.254 82.5843 144.836C82.5906 145.417 82.7217 145.941 82.9774 146.408C83.2394 146.875 83.5942 147.245 84.0416 147.52C84.4955 147.795 85.0132 147.933 85.5949 147.933C86.0296 147.933 86.4323 147.853 86.803 147.693C87.1737 147.533 87.4965 147.312 87.7714 147.031C88.0463 146.744 88.2604 146.411 88.4138 146.034C88.5736 145.657 88.6503 145.254 88.6439 144.826C88.6375 144.257 88.5033 143.739 88.2412 143.273C87.9791 142.806 87.618 142.435 87.1578 142.161C86.7039 141.879 86.1894 141.739 85.6141 141.739ZM103.212 138.095C104.286 138.095 105.312 138.271 106.29 138.623C107.268 138.968 108.141 139.521 108.908 140.281C109.675 141.036 110.279 142.029 110.72 143.263C111.161 144.497 111.381 146.002 111.381 147.779C111.388 149.415 111.196 150.882 110.806 152.18C110.416 153.471 109.857 154.571 109.128 155.478C108.406 156.386 107.537 157.08 106.52 157.559C105.504 158.032 104.369 158.268 103.116 158.268C101.736 158.268 100.518 158.003 99.4634 157.473C98.4151 156.936 97.5745 156.213 96.9417 155.306C96.3153 154.398 95.9414 153.382 95.8199 152.257H100.489C100.636 152.909 100.946 153.401 101.419 153.733C101.892 154.059 102.458 154.222 103.116 154.222C104.318 154.222 105.216 153.701 105.811 152.659C106.405 151.618 106.702 150.202 106.702 148.412H106.587C106.312 149 105.923 149.505 105.418 149.927C104.919 150.349 104.341 150.672 103.682 150.895C103.024 151.119 102.33 151.231 101.602 151.231C100.425 151.231 99.3867 150.962 98.4854 150.425C97.5905 149.888 96.8874 149.15 96.376 148.211C95.871 147.271 95.6154 146.197 95.609 144.989C95.6026 143.634 95.919 142.439 96.5582 141.403C97.1974 140.361 98.0891 139.549 99.2333 138.968C100.377 138.38 101.704 138.089 103.212 138.095ZM103.241 141.739C102.653 141.739 102.129 141.876 101.669 142.151C101.215 142.426 100.857 142.797 100.595 143.263C100.333 143.73 100.205 144.254 100.211 144.836C100.218 145.417 100.349 145.941 100.604 146.408C100.866 146.875 101.221 147.245 101.669 147.52C102.122 147.795 102.64 147.933 103.222 147.933C103.657 147.933 104.059 147.853 104.43 147.693C104.801 147.533 105.124 147.312 105.398 147.031C105.673 146.744 105.887 146.411 106.041 146.034C106.201 145.657 106.277 145.254 106.271 144.826C106.265 144.257 106.13 143.739 105.868 143.273C105.606 142.806 105.245 142.435 104.785 142.161C104.331 141.879 103.816 141.739 103.241 141.739Z" fill="#F2F9FB"/>
<path d="M139.435 128.455H142.659L146.977 138.994H147.148L151.466 128.455H154.69V143H152.162V133.007H152.027L148.007 142.957H146.118L142.098 132.986H141.963V143H139.435V128.455ZM161.805 143.213C160.739 143.213 159.816 142.979 159.035 142.51C158.253 142.041 157.647 141.385 157.216 140.543C156.79 139.7 156.577 138.715 156.577 137.588C156.577 136.461 156.79 135.474 157.216 134.626C157.647 133.779 158.253 133.121 159.035 132.652C159.816 132.183 160.739 131.949 161.805 131.949C162.87 131.949 163.793 132.183 164.574 132.652C165.356 133.121 165.959 133.779 166.386 134.626C166.816 135.474 167.032 136.461 167.032 137.588C167.032 138.715 166.816 139.7 166.386 140.543C165.959 141.385 165.356 142.041 164.574 142.51C163.793 142.979 162.87 143.213 161.805 143.213ZM161.819 141.153C162.396 141.153 162.879 140.995 163.268 140.678C163.656 140.356 163.945 139.925 164.134 139.385C164.328 138.845 164.425 138.244 164.425 137.581C164.425 136.913 164.328 136.31 164.134 135.77C163.945 135.225 163.656 134.792 163.268 134.47C162.879 134.148 162.396 133.987 161.819 133.987C161.227 133.987 160.734 134.148 160.341 134.47C159.953 134.792 159.662 135.225 159.468 135.77C159.279 136.31 159.184 136.913 159.184 137.581C159.184 138.244 159.279 138.845 159.468 139.385C159.662 139.925 159.953 140.356 160.341 140.678C160.734 140.995 161.227 141.153 161.819 141.153ZM171.385 136.608V143H168.814V132.091H171.271V133.945H171.399C171.65 133.334 172.05 132.848 172.6 132.489C173.153 132.129 173.838 131.949 174.652 131.949C175.405 131.949 176.061 132.11 176.619 132.432C177.183 132.754 177.618 133.22 177.926 133.831C178.239 134.442 178.393 135.183 178.388 136.054V143H175.817V136.452C175.817 135.723 175.627 135.152 175.249 134.74C174.875 134.328 174.356 134.122 173.693 134.122C173.243 134.122 172.843 134.222 172.493 134.42C172.147 134.615 171.875 134.896 171.676 135.266C171.482 135.635 171.385 136.082 171.385 136.608ZM186.049 132.091V134.08H179.778V132.091H186.049ZM181.326 129.477H183.897V139.719C183.897 140.064 183.949 140.33 184.053 140.514C184.162 140.694 184.304 140.817 184.479 140.884C184.655 140.95 184.849 140.983 185.062 140.983C185.223 140.983 185.369 140.971 185.502 140.947C185.639 140.924 185.744 140.902 185.815 140.884L186.248 142.893C186.11 142.941 185.914 142.993 185.658 143.05C185.407 143.107 185.1 143.14 184.735 143.149C184.091 143.168 183.511 143.071 182.995 142.858C182.479 142.64 182.069 142.304 181.766 141.849C181.468 141.395 181.321 140.827 181.326 140.145V129.477ZM190.605 136.608V143H188.034V128.455H190.548V133.945H190.676C190.931 133.329 191.327 132.844 191.862 132.489C192.401 132.129 193.088 131.949 193.921 131.949C194.679 131.949 195.339 132.107 195.903 132.425C196.466 132.742 196.902 133.206 197.21 133.817C197.522 134.428 197.678 135.173 197.678 136.054V143H195.107V136.452C195.107 135.718 194.918 135.147 194.539 134.74C194.165 134.328 193.64 134.122 192.963 134.122C192.508 134.122 192.101 134.222 191.741 134.42C191.386 134.615 191.106 134.896 190.903 135.266C190.704 135.635 190.605 136.082 190.605 136.608ZM202.47 128.455V143H199.899V128.455H202.47ZM206.312 147.091C205.962 147.091 205.637 147.063 205.339 147.006C205.045 146.954 204.811 146.892 204.636 146.821L205.232 144.818C205.607 144.927 205.94 144.979 206.234 144.974C206.527 144.97 206.785 144.877 207.008 144.697C207.235 144.522 207.427 144.229 207.583 143.817L207.803 143.227L203.848 132.091H206.575L209.089 140.33H209.203L211.724 132.091H214.458L210.09 144.321C209.887 144.899 209.617 145.393 209.281 145.805C208.945 146.222 208.533 146.539 208.045 146.757C207.562 146.98 206.984 147.091 206.312 147.091ZM139.321 167V156.091H141.892V167H139.321ZM140.614 154.543C140.206 154.543 139.856 154.408 139.562 154.138C139.269 153.863 139.122 153.534 139.122 153.151C139.122 152.762 139.269 152.433 139.562 152.163C139.856 151.889 140.206 151.751 140.614 151.751C141.026 151.751 141.376 151.889 141.665 152.163C141.958 152.433 142.105 152.762 142.105 153.151C142.105 153.534 141.958 153.863 141.665 154.138C141.376 154.408 141.026 154.543 140.614 154.543ZM146.707 160.608V167H144.136V156.091H146.593V157.945H146.721C146.972 157.334 147.372 156.848 147.921 156.489C148.475 156.129 149.16 155.949 149.974 155.949C150.727 155.949 151.383 156.11 151.941 156.432C152.505 156.754 152.94 157.22 153.248 157.831C153.561 158.442 153.714 159.183 153.71 160.054V167H151.139V160.452C151.139 159.723 150.949 159.152 150.571 158.74C150.196 158.328 149.678 158.122 149.015 158.122C148.565 158.122 148.165 158.222 147.815 158.42C147.469 158.615 147.197 158.896 146.998 159.266C146.804 159.635 146.707 160.082 146.707 160.608ZM165.277 156.091L161.392 167H158.551L154.666 156.091H157.408L159.915 164.195H160.028L162.543 156.091H165.277ZM171.115 167.213C170.021 167.213 169.076 166.986 168.281 166.531C167.49 166.072 166.882 165.423 166.456 164.585C166.029 163.742 165.816 162.75 165.816 161.609C165.816 160.487 166.029 159.502 166.456 158.655C166.886 157.803 167.488 157.14 168.26 156.666C169.031 156.188 169.938 155.949 170.98 155.949C171.652 155.949 172.287 156.058 172.883 156.276C173.484 156.489 174.015 156.82 174.474 157.27C174.938 157.72 175.303 158.293 175.568 158.989C175.833 159.68 175.965 160.504 175.965 161.46V162.249H167.024V160.516H173.501C173.496 160.023 173.39 159.585 173.181 159.202C172.973 158.813 172.682 158.508 172.308 158.286C171.938 158.063 171.508 157.952 171.015 157.952C170.49 157.952 170.028 158.08 169.63 158.335C169.233 158.586 168.922 158.918 168.7 159.33C168.482 159.737 168.371 160.184 168.366 160.672V162.185C168.366 162.819 168.482 163.364 168.714 163.818C168.946 164.268 169.27 164.614 169.687 164.855C170.104 165.092 170.591 165.21 171.15 165.21C171.524 165.21 171.863 165.158 172.166 165.054C172.469 164.945 172.732 164.786 172.954 164.578C173.177 164.37 173.345 164.112 173.458 163.804L175.859 164.074C175.707 164.708 175.419 165.262 174.992 165.736C174.571 166.205 174.031 166.569 173.373 166.83C172.715 167.085 171.962 167.213 171.115 167.213ZM186.363 158.974L184.019 159.23C183.953 158.993 183.837 158.771 183.671 158.562C183.51 158.354 183.292 158.186 183.018 158.058C182.743 157.93 182.407 157.866 182.009 157.866C181.474 157.866 181.024 157.982 180.66 158.214C180.3 158.446 180.122 158.747 180.127 159.116C180.122 159.434 180.238 159.692 180.475 159.891C180.716 160.089 181.114 160.253 181.668 160.381L183.529 160.778C184.561 161.001 185.328 161.354 185.83 161.837C186.337 162.32 186.592 162.952 186.597 163.733C186.592 164.42 186.391 165.026 185.993 165.551C185.6 166.072 185.054 166.479 184.353 166.773C183.652 167.066 182.847 167.213 181.938 167.213C180.603 167.213 179.528 166.934 178.714 166.375C177.899 165.812 177.414 165.028 177.258 164.024L179.765 163.783C179.878 164.275 180.12 164.647 180.489 164.898C180.858 165.149 181.339 165.274 181.931 165.274C182.542 165.274 183.032 165.149 183.401 164.898C183.775 164.647 183.962 164.337 183.962 163.967C183.962 163.655 183.841 163.397 183.6 163.193C183.363 162.99 182.994 162.833 182.492 162.724L180.631 162.334C179.585 162.116 178.811 161.749 178.309 161.233C177.807 160.712 177.558 160.054 177.563 159.259C177.558 158.586 177.741 158.004 178.11 157.511C178.484 157.014 179.002 156.631 179.665 156.361C180.333 156.086 181.102 155.949 181.974 155.949C183.252 155.949 184.258 156.221 184.992 156.766C185.731 157.31 186.188 158.046 186.363 158.974ZM193.765 156.091V158.08H187.493V156.091H193.765ZM189.042 153.477H191.613V163.719C191.613 164.064 191.665 164.33 191.769 164.514C191.878 164.694 192.02 164.817 192.195 164.884C192.37 164.95 192.564 164.983 192.777 164.983C192.938 164.983 193.085 164.971 193.218 164.947C193.355 164.924 193.459 164.902 193.53 164.884L193.963 166.893C193.826 166.941 193.63 166.993 193.374 167.05C193.123 167.107 192.815 167.14 192.451 167.149C191.807 167.168 191.227 167.071 190.711 166.858C190.194 166.64 189.785 166.304 189.482 165.849C189.184 165.395 189.037 164.827 189.042 164.145V153.477ZM195.515 167V156.091H197.972V157.945H198.1C198.327 157.32 198.704 156.832 199.229 156.482C199.755 156.126 200.382 155.949 201.111 155.949C201.85 155.949 202.473 156.129 202.979 156.489C203.491 156.844 203.85 157.329 204.059 157.945H204.172C204.414 157.339 204.821 156.856 205.394 156.496C205.972 156.131 206.656 155.949 207.447 155.949C208.45 155.949 209.27 156.266 209.904 156.901C210.538 157.535 210.856 158.461 210.856 159.678V167H208.278V160.075C208.278 159.398 208.098 158.903 207.738 158.591C207.378 158.274 206.938 158.115 206.417 158.115C205.796 158.115 205.311 158.309 204.961 158.697C204.615 159.081 204.442 159.58 204.442 160.196V167H201.921V159.969C201.921 159.405 201.751 158.955 201.41 158.619C201.073 158.283 200.633 158.115 200.089 158.115C199.719 158.115 199.383 158.21 199.08 158.399C198.777 158.584 198.536 158.847 198.356 159.188C198.176 159.524 198.086 159.917 198.086 160.366V167H195.515ZM217.894 167.213C216.8 167.213 215.855 166.986 215.06 166.531C214.269 166.072 213.661 165.423 213.234 164.585C212.808 163.742 212.595 162.75 212.595 161.609C212.595 160.487 212.808 159.502 213.234 158.655C213.665 157.803 214.267 157.14 215.038 156.666C215.81 156.188 216.717 155.949 217.759 155.949C218.431 155.949 219.065 156.058 219.662 156.276C220.263 156.489 220.794 156.82 221.253 157.27C221.717 157.72 222.082 158.293 222.347 158.989C222.612 159.68 222.744 160.504 222.744 161.46V162.249H213.803V160.516H220.28C220.275 160.023 220.169 159.585 219.96 159.202C219.752 158.813 219.461 158.508 219.087 158.286C218.717 158.063 218.287 157.952 217.794 157.952C217.269 157.952 216.807 158.08 216.409 158.335C216.011 158.586 215.701 158.918 215.479 159.33C215.261 159.737 215.15 160.184 215.145 160.672V162.185C215.145 162.819 215.261 163.364 215.493 163.818C215.725 164.268 216.049 164.614 216.466 164.855C216.883 165.092 217.37 165.21 217.929 165.21C218.303 165.21 218.642 165.158 218.945 165.054C219.248 164.945 219.51 164.786 219.733 164.578C219.956 164.37 220.124 164.112 220.237 163.804L222.638 164.074C222.486 164.708 222.198 165.262 221.771 165.736C221.35 166.205 220.81 166.569 220.152 166.83C219.494 167.085 218.741 167.213 217.894 167.213ZM227.09 160.608V167H224.519V156.091H226.977V157.945H227.105C227.356 157.334 227.756 156.848 228.305 156.489C228.859 156.129 229.543 155.949 230.358 155.949C231.11 155.949 231.766 156.11 232.325 156.432C232.888 156.754 233.324 157.22 233.632 157.831C233.944 158.442 234.098 159.183 234.093 160.054V167H231.522V160.452C231.522 159.723 231.333 159.152 230.954 158.74C230.58 158.328 230.062 158.122 229.399 158.122C228.949 158.122 228.549 158.222 228.198 158.42C227.853 158.615 227.581 158.896 227.382 159.266C227.188 159.635 227.09 160.082 227.09 160.608ZM241.754 156.091V158.08H235.483V156.091H241.754ZM237.031 153.477H239.602V163.719C239.602 164.064 239.654 164.33 239.759 164.514C239.868 164.694 240.01 164.817 240.185 164.884C240.36 164.95 240.554 164.983 240.767 164.983C240.928 164.983 241.075 164.971 241.208 164.947C241.345 164.924 241.449 164.902 241.52 164.884L241.953 166.893C241.816 166.941 241.619 166.993 241.364 167.05C241.113 167.107 240.805 167.14 240.44 167.149C239.797 167.168 239.217 167.071 238.7 166.858C238.184 166.64 237.775 166.304 237.472 165.849C237.173 165.395 237.027 164.827 237.031 164.145V153.477Z" fill="white"/>
<rect x="29" y="214" width="326" height="91" rx="17" fill="#F2F9FB"/>
<path d="M67.3548 271.455V246.909H68.9273V271.455H67.3548ZM71.1421 255.251C71.0782 254.548 70.7937 254.001 70.2888 253.611C69.7902 253.215 69.0775 253.017 68.1506 253.017C67.537 253.017 67.0256 253.097 66.6165 253.256C66.2074 253.416 65.9006 253.637 65.6961 253.918C65.4915 254.193 65.3861 254.509 65.3797 254.867C65.3669 255.161 65.4244 255.42 65.5523 255.644C65.6865 255.868 65.8782 256.066 66.1275 256.238C66.3832 256.404 66.69 256.551 67.048 256.679C67.4059 256.807 67.8086 256.919 68.2561 257.015L69.9436 257.398C70.9152 257.609 71.7717 257.891 72.5132 258.242C73.2611 258.594 73.8875 259.012 74.3925 259.498C74.9038 259.984 75.2905 260.543 75.5526 261.176C75.8147 261.809 75.9489 262.518 75.9553 263.305C75.9489 264.545 75.6357 265.609 75.0157 266.498C74.3956 267.386 73.504 268.067 72.3406 268.54C71.1836 269.013 69.787 269.249 68.1506 269.249C66.5079 269.249 65.076 269.003 63.8552 268.511C62.6343 268.019 61.6851 267.271 61.0075 266.267C60.33 265.264 59.9816 263.995 59.9624 262.461H64.5072C64.5455 263.094 64.7149 263.621 65.0153 264.043C65.3157 264.465 65.728 264.784 66.2522 265.002C66.7827 265.219 67.3964 265.328 68.0931 265.328C68.7323 265.328 69.2756 265.241 69.7231 265.069C70.1769 264.896 70.5253 264.657 70.7682 264.35C71.0111 264.043 71.1357 263.691 71.1421 263.295C71.1357 262.924 71.0206 262.608 70.7969 262.346C70.5732 262.077 70.228 261.847 69.7614 261.656C69.3012 261.457 68.7131 261.275 67.9972 261.109L65.9454 260.63C64.2451 260.24 62.9059 259.61 61.928 258.741C60.95 257.865 60.4642 256.683 60.4706 255.193C60.4642 253.979 60.7902 252.914 61.4486 252C62.1069 251.086 63.0178 250.374 64.1812 249.862C65.3445 249.351 66.6709 249.095 68.1602 249.095C69.6815 249.095 71.0015 249.354 72.1201 249.872C73.2451 250.383 74.1176 251.102 74.7376 252.029C75.3577 252.956 75.6741 254.03 75.6868 255.251H71.1421ZM78.6081 269L86.5279 253.314V253.189H77.2658V249.364H91.437V253.218L83.4885 269H78.6081ZM100.631 249.095C101.705 249.095 102.731 249.271 103.709 249.623C104.687 249.968 105.56 250.521 106.327 251.281C107.094 252.036 107.698 253.029 108.139 254.263C108.58 255.497 108.8 257.002 108.8 258.779C108.807 260.415 108.615 261.882 108.225 263.18C107.835 264.471 107.276 265.571 106.547 266.478C105.825 267.386 104.955 268.08 103.939 268.559C102.923 269.032 101.788 269.268 100.535 269.268C99.1547 269.268 97.937 269.003 96.8823 268.473C95.834 267.936 94.9935 267.213 94.3607 266.306C93.7342 265.398 93.3603 264.382 93.2389 263.257H97.9082C98.0553 263.909 98.3653 264.401 98.8383 264.733C99.3113 265.059 99.877 265.222 100.535 265.222C101.737 265.222 102.635 264.701 103.23 263.659C103.824 262.618 104.121 261.202 104.121 259.412H104.006C103.731 260 103.341 260.505 102.837 260.927C102.338 261.349 101.759 261.672 101.101 261.895C100.443 262.119 99.7492 262.231 99.0205 262.231C97.8443 262.231 96.8056 261.962 95.9043 261.425C95.0094 260.888 94.3063 260.15 93.795 259.211C93.29 258.271 93.0343 257.197 93.0279 255.989C93.0215 254.634 93.3379 253.439 93.9771 252.403C94.6163 251.361 95.508 250.549 96.6522 249.968C97.7964 249.38 99.1227 249.089 100.631 249.095ZM100.66 252.739C100.072 252.739 99.5478 252.876 99.0876 253.151C98.6337 253.426 98.2758 253.797 98.0137 254.263C97.7516 254.73 97.6238 255.254 97.6302 255.836C97.6366 256.417 97.7676 256.941 98.0233 257.408C98.2854 257.875 98.6401 258.245 99.0876 258.52C99.5414 258.795 100.059 258.933 100.641 258.933C101.076 258.933 101.478 258.853 101.849 258.693C102.22 258.533 102.542 258.312 102.817 258.031C103.092 257.744 103.306 257.411 103.46 257.034C103.62 256.657 103.696 256.254 103.69 255.826C103.683 255.257 103.549 254.739 103.287 254.273C103.025 253.806 102.664 253.435 102.204 253.161C101.75 252.879 101.235 252.739 100.66 252.739Z" fill="#295D4E"/>
<path d="M139.435 239.455H142.659L146.977 249.994H147.148L151.466 239.455H154.69V254H152.162V244.007H152.027L148.007 253.957H146.118L142.098 243.986H141.963V254H139.435V239.455ZM161.805 254.213C160.739 254.213 159.816 253.979 159.035 253.51C158.253 253.041 157.647 252.385 157.216 251.543C156.79 250.7 156.577 249.715 156.577 248.588C156.577 247.461 156.79 246.474 157.216 245.626C157.647 244.779 158.253 244.121 159.035 243.652C159.816 243.183 160.739 242.949 161.805 242.949C162.87 242.949 163.793 243.183 164.574 243.652C165.356 244.121 165.959 244.779 166.386 245.626C166.816 246.474 167.032 247.461 167.032 248.588C167.032 249.715 166.816 250.7 166.386 251.543C165.959 252.385 165.356 253.041 164.574 253.51C163.793 253.979 162.87 254.213 161.805 254.213ZM161.819 252.153C162.396 252.153 162.879 251.995 163.268 251.678C163.656 251.356 163.945 250.925 164.134 250.385C164.328 249.845 164.425 249.244 164.425 248.581C164.425 247.913 164.328 247.31 164.134 246.77C163.945 246.225 163.656 245.792 163.268 245.47C162.879 245.148 162.396 244.987 161.819 244.987C161.227 244.987 160.734 245.148 160.341 245.47C159.953 245.792 159.662 246.225 159.468 246.77C159.279 247.31 159.184 247.913 159.184 248.581C159.184 249.244 159.279 249.845 159.468 250.385C159.662 250.925 159.953 251.356 160.341 251.678C160.734 251.995 161.227 252.153 161.819 252.153ZM171.385 247.608V254H168.814V243.091H171.271V244.945H171.399C171.65 244.334 172.05 243.848 172.6 243.489C173.153 243.129 173.838 242.949 174.652 242.949C175.405 242.949 176.061 243.11 176.619 243.432C177.183 243.754 177.618 244.22 177.926 244.831C178.239 245.442 178.393 246.183 178.388 247.054V254H175.817V247.452C175.817 246.723 175.627 246.152 175.249 245.74C174.875 245.328 174.356 245.122 173.693 245.122C173.243 245.122 172.843 245.222 172.493 245.42C172.147 245.615 171.875 245.896 171.676 246.266C171.482 246.635 171.385 247.082 171.385 247.608ZM186.049 243.091V245.08H179.778V243.091H186.049ZM181.326 240.477H183.897V250.719C183.897 251.064 183.949 251.33 184.053 251.514C184.162 251.694 184.304 251.817 184.479 251.884C184.655 251.95 184.849 251.983 185.062 251.983C185.223 251.983 185.369 251.971 185.502 251.947C185.639 251.924 185.744 251.902 185.815 251.884L186.248 253.893C186.11 253.941 185.914 253.993 185.658 254.05C185.407 254.107 185.1 254.14 184.735 254.149C184.091 254.168 183.511 254.071 182.995 253.858C182.479 253.64 182.069 253.304 181.766 252.849C181.468 252.395 181.321 251.827 181.326 251.145V240.477ZM190.605 247.608V254H188.034V239.455H190.548V244.945H190.676C190.931 244.329 191.327 243.844 191.862 243.489C192.401 243.129 193.088 242.949 193.921 242.949C194.679 242.949 195.339 243.107 195.903 243.425C196.466 243.742 196.902 244.206 197.21 244.817C197.522 245.428 197.678 246.173 197.678 247.054V254H195.107V247.452C195.107 246.718 194.918 246.147 194.539 245.74C194.165 245.328 193.64 245.122 192.963 245.122C192.508 245.122 192.101 245.222 191.741 245.42C191.386 245.615 191.106 245.896 190.903 246.266C190.704 246.635 190.605 247.082 190.605 247.608ZM202.47 239.455V254H199.899V239.455H202.47ZM206.312 258.091C205.962 258.091 205.637 258.063 205.339 258.006C205.045 257.954 204.811 257.892 204.636 257.821L205.232 255.818C205.607 255.927 205.94 255.979 206.234 255.974C206.527 255.97 206.785 255.877 207.008 255.697C207.235 255.522 207.427 255.229 207.583 254.817L207.803 254.227L203.848 243.091H206.575L209.089 251.33H209.203L211.724 243.091H214.458L210.09 255.321C209.887 255.899 209.617 256.393 209.281 256.805C208.945 257.222 208.533 257.539 208.045 257.757C207.562 257.98 206.984 258.091 206.312 258.091ZM139.321 278V267.091H141.892V278H139.321ZM140.614 265.543C140.206 265.543 139.856 265.408 139.562 265.138C139.269 264.863 139.122 264.534 139.122 264.151C139.122 263.762 139.269 263.433 139.562 263.163C139.856 262.889 140.206 262.751 140.614 262.751C141.026 262.751 141.376 262.889 141.665 263.163C141.958 263.433 142.105 263.762 142.105 264.151C142.105 264.534 141.958 264.863 141.665 265.138C141.376 265.408 141.026 265.543 140.614 265.543ZM146.707 271.608V278H144.136V267.091H146.593V268.945H146.721C146.972 268.334 147.372 267.848 147.921 267.489C148.475 267.129 149.16 266.949 149.974 266.949C150.727 266.949 151.383 267.11 151.941 267.432C152.505 267.754 152.94 268.22 153.248 268.831C153.561 269.442 153.714 270.183 153.71 271.054V278H151.139V271.452C151.139 270.723 150.949 270.152 150.571 269.74C150.196 269.328 149.678 269.122 149.015 269.122C148.565 269.122 148.165 269.222 147.815 269.42C147.469 269.615 147.197 269.896 146.998 270.266C146.804 270.635 146.707 271.082 146.707 271.608ZM165.277 267.091L161.392 278H158.551L154.666 267.091H157.408L159.915 275.195H160.028L162.543 267.091H165.277ZM171.115 278.213C170.021 278.213 169.076 277.986 168.281 277.531C167.49 277.072 166.882 276.423 166.456 275.585C166.029 274.742 165.816 273.75 165.816 272.609C165.816 271.487 166.029 270.502 166.456 269.655C166.886 268.803 167.488 268.14 168.26 267.666C169.031 267.188 169.938 266.949 170.98 266.949C171.652 266.949 172.287 267.058 172.883 267.276C173.484 267.489 174.015 267.82 174.474 268.27C174.938 268.72 175.303 269.293 175.568 269.989C175.833 270.68 175.965 271.504 175.965 272.46V273.249H167.024V271.516H173.501C173.496 271.023 173.39 270.585 173.181 270.202C172.973 269.813 172.682 269.508 172.308 269.286C171.938 269.063 171.508 268.952 171.015 268.952C170.49 268.952 170.028 269.08 169.63 269.335C169.233 269.586 168.922 269.918 168.7 270.33C168.482 270.737 168.371 271.184 168.366 271.672V273.185C168.366 273.819 168.482 274.364 168.714 274.818C168.946 275.268 169.27 275.614 169.687 275.855C170.104 276.092 170.591 276.21 171.15 276.21C171.524 276.21 171.863 276.158 172.166 276.054C172.469 275.945 172.732 275.786 172.954 275.578C173.177 275.37 173.345 275.112 173.458 274.804L175.859 275.074C175.707 275.708 175.419 276.262 174.992 276.736C174.571 277.205 174.031 277.569 173.373 277.83C172.715 278.085 171.962 278.213 171.115 278.213ZM186.363 269.974L184.019 270.23C183.953 269.993 183.837 269.771 183.671 269.562C183.51 269.354 183.292 269.186 183.018 269.058C182.743 268.93 182.407 268.866 182.009 268.866C181.474 268.866 181.024 268.982 180.66 269.214C180.3 269.446 180.122 269.747 180.127 270.116C180.122 270.434 180.238 270.692 180.475 270.891C180.716 271.089 181.114 271.253 181.668 271.381L183.529 271.778C184.561 272.001 185.328 272.354 185.83 272.837C186.337 273.32 186.592 273.952 186.597 274.733C186.592 275.42 186.391 276.026 185.993 276.551C185.6 277.072 185.054 277.479 184.353 277.773C183.652 278.066 182.847 278.213 181.938 278.213C180.603 278.213 179.528 277.934 178.714 277.375C177.899 276.812 177.414 276.028 177.258 275.024L179.765 274.783C179.878 275.275 180.12 275.647 180.489 275.898C180.858 276.149 181.339 276.274 181.931 276.274C182.542 276.274 183.032 276.149 183.401 275.898C183.775 275.647 183.962 275.337 183.962 274.967C183.962 274.655 183.841 274.397 183.6 274.193C183.363 273.99 182.994 273.833 182.492 273.724L180.631 273.334C179.585 273.116 178.811 272.749 178.309 272.233C177.807 271.712 177.558 271.054 177.563 270.259C177.558 269.586 177.741 269.004 178.11 268.511C178.484 268.014 179.002 267.631 179.665 267.361C180.333 267.086 181.102 266.949 181.974 266.949C183.252 266.949 184.258 267.221 184.992 267.766C185.731 268.31 186.188 269.046 186.363 269.974ZM193.765 267.091V269.08H187.493V267.091H193.765ZM189.042 264.477H191.613V274.719C191.613 275.064 191.665 275.33 191.769 275.514C191.878 275.694 192.02 275.817 192.195 275.884C192.37 275.95 192.564 275.983 192.777 275.983C192.938 275.983 193.085 275.971 193.218 275.947C193.355 275.924 193.459 275.902 193.53 275.884L193.963 277.893C193.826 277.941 193.63 277.993 193.374 278.05C193.123 278.107 192.815 278.14 192.451 278.149C191.807 278.168 191.227 278.071 190.711 277.858C190.194 277.64 189.785 277.304 189.482 276.849C189.184 276.395 189.037 275.827 189.042 275.145V264.477ZM195.515 278V267.091H197.972V268.945H198.1C198.327 268.32 198.704 267.832 199.229 267.482C199.755 267.126 200.382 266.949 201.111 266.949C201.85 266.949 202.473 267.129 202.979 267.489C203.491 267.844 203.85 268.329 204.059 268.945H204.172C204.414 268.339 204.821 267.856 205.394 267.496C205.972 267.131 206.656 266.949 207.447 266.949C208.45 266.949 209.27 267.266 209.904 267.901C210.538 268.535 210.856 269.461 210.856 270.678V278H208.278V271.075C208.278 270.398 208.098 269.903 207.738 269.591C207.378 269.274 206.938 269.115 206.417 269.115C205.796 269.115 205.311 269.309 204.961 269.697C204.615 270.081 204.442 270.58 204.442 271.196V278H201.921V270.969C201.921 270.405 201.751 269.955 201.41 269.619C201.073 269.283 200.633 269.115 200.089 269.115C199.719 269.115 199.383 269.21 199.08 269.399C198.777 269.584 198.536 269.847 198.356 270.188C198.176 270.524 198.086 270.917 198.086 271.366V278H195.515ZM217.894 278.213C216.8 278.213 215.855 277.986 215.06 277.531C214.269 277.072 213.661 276.423 213.234 275.585C212.808 274.742 212.595 273.75 212.595 272.609C212.595 271.487 212.808 270.502 213.234 269.655C213.665 268.803 214.267 268.14 215.038 267.666C215.81 267.188 216.717 266.949 217.759 266.949C218.431 266.949 219.065 267.058 219.662 267.276C220.263 267.489 220.794 267.82 221.253 268.27C221.717 268.72 222.082 269.293 222.347 269.989C222.612 270.68 222.744 271.504 222.744 272.46V273.249H213.803V271.516H220.28C220.275 271.023 220.169 270.585 219.96 270.202C219.752 269.813 219.461 269.508 219.087 269.286C218.717 269.063 218.287 268.952 217.794 268.952C217.269 268.952 216.807 269.08 216.409 269.335C216.011 269.586 215.701 269.918 215.479 270.33C215.261 270.737 215.15 271.184 215.145 271.672V273.185C215.145 273.819 215.261 274.364 215.493 274.818C215.725 275.268 216.049 275.614 216.466 275.855C216.883 276.092 217.37 276.21 217.929 276.21C218.303 276.21 218.642 276.158 218.945 276.054C219.248 275.945 219.51 275.786 219.733 275.578C219.956 275.37 220.124 275.112 220.237 274.804L222.638 275.074C222.486 275.708 222.198 276.262 221.771 276.736C221.35 277.205 220.81 277.569 220.152 277.83C219.494 278.085 218.741 278.213 217.894 278.213ZM227.09 271.608V278H224.519V267.091H226.977V268.945H227.105C227.356 268.334 227.756 267.848 228.305 267.489C228.859 267.129 229.543 266.949 230.358 266.949C231.11 266.949 231.766 267.11 232.325 267.432C232.888 267.754 233.324 268.22 233.632 268.831C233.944 269.442 234.098 270.183 234.093 271.054V278H231.522V271.452C231.522 270.723 231.333 270.152 230.954 269.74C230.58 269.328 230.062 269.122 229.399 269.122C228.949 269.122 228.549 269.222 228.198 269.42C227.853 269.615 227.581 269.896 227.382 270.266C227.188 270.635 227.09 271.082 227.09 271.608ZM241.754 267.091V269.08H235.483V267.091H241.754ZM237.031 264.477H239.602V274.719C239.602 275.064 239.654 275.33 239.759 275.514C239.868 275.694 240.01 275.817 240.185 275.884C240.36 275.95 240.554 275.983 240.767 275.983C240.928 275.983 241.075 275.971 241.208 275.947C241.345 275.924 241.449 275.902 241.52 275.884L241.953 277.893C241.816 277.941 241.619 277.993 241.364 278.05C241.113 278.107 240.805 278.14 240.44 278.149C239.797 278.168 239.217 278.071 238.7 277.858C238.184 277.64 237.775 277.304 237.472 276.849C237.173 276.395 237.027 275.827 237.031 275.145V264.477Z" fill="#295D4E"/>
<rect opacity="0.6" x="29" y="325" width="326" height="91" rx="17" fill="#F2F9FB"/>
<path d="M67.5496 382.455V357.909H69.1221V382.455H67.5496ZM71.3369 366.251C71.273 365.548 70.9886 365.001 70.4836 364.611C69.985 364.215 69.2723 364.017 68.3454 364.017C67.7318 364.017 67.2204 364.097 66.8114 364.256C66.4023 364.416 66.0954 364.637 65.8909 364.918C65.6864 365.193 65.5809 365.509 65.5745 365.867C65.5617 366.161 65.6192 366.42 65.7471 366.644C65.8813 366.868 66.0731 367.066 66.3224 367.238C66.578 367.404 66.8849 367.551 67.2428 367.679C67.6008 367.807 68.0035 367.919 68.4509 368.015L70.1384 368.398C71.11 368.609 71.9665 368.891 72.708 369.242C73.4559 369.594 74.0823 370.012 74.5873 370.498C75.0986 370.984 75.4854 371.543 75.7474 372.176C76.0095 372.809 76.1437 373.518 76.1501 374.305C76.1437 375.545 75.8305 376.609 75.2105 377.498C74.5905 378.386 73.6988 379.067 72.5354 379.54C71.3785 380.013 69.9818 380.249 68.3454 380.249C66.7027 380.249 65.2709 380.003 64.05 379.511C62.8291 379.019 61.8799 378.271 61.2023 377.267C60.5248 376.264 60.1764 374.995 60.1572 373.461H64.702C64.7403 374.094 64.9097 374.621 65.2101 375.043C65.5106 375.465 65.9229 375.784 66.447 376.002C66.9775 376.219 67.5912 376.328 68.2879 376.328C68.9271 376.328 69.4704 376.241 69.9179 376.069C70.3717 375.896 70.7201 375.657 70.963 375.35C71.2059 375.043 71.3305 374.691 71.3369 374.295C71.3305 373.924 71.2155 373.608 70.9918 373.346C70.768 373.077 70.4229 372.847 69.9562 372.656C69.496 372.457 68.9079 372.275 68.192 372.109L66.1402 371.63C64.4399 371.24 63.1008 370.61 62.1228 369.741C61.1448 368.865 60.659 367.683 60.6654 366.193C60.659 364.979 60.985 363.914 61.6434 363C62.3018 362.086 63.2126 361.374 64.376 360.862C65.5393 360.351 66.8657 360.095 68.355 360.095C69.8763 360.095 71.1963 360.354 72.3149 360.872C73.4399 361.383 74.3124 362.102 74.9324 363.029C75.5525 363.956 75.8689 365.03 75.8817 366.251H71.3369ZM77.7291 376.74V373.039L85.7735 360.364H89.0622V365.388H87.1542L82.4464 372.847V373.001H94.0959V376.74H77.7291ZM87.2117 380V375.609L87.3076 373.988V360.364H91.7468V380H87.2117ZM103.436 360.095C104.51 360.095 105.536 360.271 106.514 360.623C107.492 360.968 108.365 361.521 109.132 362.281C109.899 363.036 110.503 364.029 110.944 365.263C111.385 366.497 111.605 368.002 111.605 369.779C111.612 371.415 111.42 372.882 111.03 374.18C110.64 375.471 110.081 376.571 109.352 377.478C108.63 378.386 107.761 379.08 106.744 379.559C105.728 380.032 104.593 380.268 103.341 380.268C101.96 380.268 100.742 380.003 99.6875 379.473C98.6392 378.936 97.7986 378.213 97.1658 377.306C96.5394 376.398 96.1655 375.382 96.044 374.257H100.713C100.86 374.909 101.17 375.401 101.643 375.733C102.116 376.059 102.682 376.222 103.341 376.222C104.542 376.222 105.44 375.701 106.035 374.659C106.629 373.618 106.926 372.202 106.926 370.412H106.811C106.537 371 106.147 371.505 105.642 371.927C105.143 372.349 104.565 372.672 103.906 372.895C103.248 373.119 102.554 373.231 101.826 373.231C100.649 373.231 99.6108 372.962 98.7095 372.425C97.8146 371.888 97.1115 371.15 96.6001 370.211C96.0952 369.271 95.8395 368.197 95.8331 366.989C95.8267 365.634 96.1431 364.439 96.7823 363.403C97.4215 362.361 98.3132 361.549 99.4574 360.968C100.602 360.38 101.928 360.089 103.436 360.095ZM103.465 363.739C102.877 363.739 102.353 363.876 101.893 364.151C101.439 364.426 101.081 364.797 100.819 365.263C100.557 365.73 100.429 366.254 100.435 366.836C100.442 367.417 100.573 367.941 100.828 368.408C101.091 368.875 101.445 369.245 101.893 369.52C102.347 369.795 102.864 369.933 103.446 369.933C103.881 369.933 104.283 369.853 104.654 369.693C105.025 369.533 105.348 369.312 105.623 369.031C105.897 368.744 106.112 368.411 106.265 368.034C106.425 367.657 106.501 367.254 106.495 366.826C106.489 366.257 106.354 365.739 106.092 365.273C105.83 364.806 105.469 364.435 105.009 364.161C104.555 363.879 104.04 363.739 103.465 363.739Z" fill="#295D4E"/>
<path d="M139.435 350.455H142.659L146.977 360.994H147.148L151.466 350.455H154.69V365H152.162V355.007H152.027L148.007 364.957H146.118L142.098 354.986H141.963V365H139.435V350.455ZM161.805 365.213C160.739 365.213 159.816 364.979 159.035 364.51C158.253 364.041 157.647 363.385 157.216 362.543C156.79 361.7 156.577 360.715 156.577 359.588C156.577 358.461 156.79 357.474 157.216 356.626C157.647 355.779 158.253 355.121 159.035 354.652C159.816 354.183 160.739 353.949 161.805 353.949C162.87 353.949 163.793 354.183 164.574 354.652C165.356 355.121 165.959 355.779 166.386 356.626C166.816 357.474 167.032 358.461 167.032 359.588C167.032 360.715 166.816 361.7 166.386 362.543C165.959 363.385 165.356 364.041 164.574 364.51C163.793 364.979 162.87 365.213 161.805 365.213ZM161.819 363.153C162.396 363.153 162.879 362.995 163.268 362.678C163.656 362.356 163.945 361.925 164.134 361.385C164.328 360.845 164.425 360.244 164.425 359.581C164.425 358.913 164.328 358.31 164.134 357.77C163.945 357.225 163.656 356.792 163.268 356.47C162.879 356.148 162.396 355.987 161.819 355.987C161.227 355.987 160.734 356.148 160.341 356.47C159.953 356.792 159.662 357.225 159.468 357.77C159.279 358.31 159.184 358.913 159.184 359.581C159.184 360.244 159.279 360.845 159.468 361.385C159.662 361.925 159.953 362.356 160.341 362.678C160.734 362.995 161.227 363.153 161.819 363.153ZM171.385 358.608V365H168.814V354.091H171.271V355.945H171.399C171.65 355.334 172.05 354.848 172.6 354.489C173.153 354.129 173.838 353.949 174.652 353.949C175.405 353.949 176.061 354.11 176.619 354.432C177.183 354.754 177.618 355.22 177.926 355.831C178.239 356.442 178.393 357.183 178.388 358.054V365H175.817V358.452C175.817 357.723 175.627 357.152 175.249 356.74C174.875 356.328 174.356 356.122 173.693 356.122C173.243 356.122 172.843 356.222 172.493 356.42C172.147 356.615 171.875 356.896 171.676 357.266C171.482 357.635 171.385 358.082 171.385 358.608ZM186.049 354.091V356.08H179.778V354.091H186.049ZM181.326 351.477H183.897V361.719C183.897 362.064 183.949 362.33 184.053 362.514C184.162 362.694 184.304 362.817 184.479 362.884C184.655 362.95 184.849 362.983 185.062 362.983C185.223 362.983 185.369 362.971 185.502 362.947C185.639 362.924 185.744 362.902 185.815 362.884L186.248 364.893C186.11 364.941 185.914 364.993 185.658 365.05C185.407 365.107 185.1 365.14 184.735 365.149C184.091 365.168 183.511 365.071 182.995 364.858C182.479 364.64 182.069 364.304 181.766 363.849C181.468 363.395 181.321 362.827 181.326 362.145V351.477ZM190.605 358.608V365H188.034V350.455H190.548V355.945H190.676C190.931 355.329 191.327 354.844 191.862 354.489C192.401 354.129 193.088 353.949 193.921 353.949C194.679 353.949 195.339 354.107 195.903 354.425C196.466 354.742 196.902 355.206 197.21 355.817C197.522 356.428 197.678 357.173 197.678 358.054V365H195.107V358.452C195.107 357.718 194.918 357.147 194.539 356.74C194.165 356.328 193.64 356.122 192.963 356.122C192.508 356.122 192.101 356.222 191.741 356.42C191.386 356.615 191.106 356.896 190.903 357.266C190.704 357.635 190.605 358.082 190.605 358.608ZM202.47 350.455V365H199.899V350.455H202.47ZM206.312 369.091C205.962 369.091 205.637 369.063 205.339 369.006C205.045 368.954 204.811 368.892 204.636 368.821L205.232 366.818C205.607 366.927 205.94 366.979 206.234 366.974C206.527 366.97 206.785 366.877 207.008 366.697C207.235 366.522 207.427 366.229 207.583 365.817L207.803 365.227L203.848 354.091H206.575L209.089 362.33H209.203L211.724 354.091H214.458L210.09 366.321C209.887 366.899 209.617 367.393 209.281 367.805C208.945 368.222 208.533 368.539 208.045 368.757C207.562 368.98 206.984 369.091 206.312 369.091ZM139.321 389V378.091H141.892V389H139.321ZM140.614 376.543C140.206 376.543 139.856 376.408 139.562 376.138C139.269 375.863 139.122 375.534 139.122 375.151C139.122 374.762 139.269 374.433 139.562 374.163C139.856 373.889 140.206 373.751 140.614 373.751C141.026 373.751 141.376 373.889 141.665 374.163C141.958 374.433 142.105 374.762 142.105 375.151C142.105 375.534 141.958 375.863 141.665 376.138C141.376 376.408 141.026 376.543 140.614 376.543ZM146.707 382.608V389H144.136V378.091H146.593V379.945H146.721C146.972 379.334 147.372 378.848 147.921 378.489C148.475 378.129 149.16 377.949 149.974 377.949C150.727 377.949 151.383 378.11 151.941 378.432C152.505 378.754 152.94 379.22 153.248 379.831C153.561 380.442 153.714 381.183 153.71 382.054V389H151.139V382.452C151.139 381.723 150.949 381.152 150.571 380.74C150.196 380.328 149.678 380.122 149.015 380.122C148.565 380.122 148.165 380.222 147.815 380.42C147.469 380.615 147.197 380.896 146.998 381.266C146.804 381.635 146.707 382.082 146.707 382.608ZM165.277 378.091L161.392 389H158.551L154.666 378.091H157.408L159.915 386.195H160.028L162.543 378.091H165.277ZM171.115 389.213C170.021 389.213 169.076 388.986 168.281 388.531C167.49 388.072 166.882 387.423 166.456 386.585C166.029 385.742 165.816 384.75 165.816 383.609C165.816 382.487 166.029 381.502 166.456 380.655C166.886 379.803 167.488 379.14 168.26 378.666C169.031 378.188 169.938 377.949 170.98 377.949C171.652 377.949 172.287 378.058 172.883 378.276C173.484 378.489 174.015 378.82 174.474 379.27C174.938 379.72 175.303 380.293 175.568 380.989C175.833 381.68 175.965 382.504 175.965 383.46V384.249H167.024V382.516H173.501C173.496 382.023 173.39 381.585 173.181 381.202C172.973 380.813 172.682 380.508 172.308 380.286C171.938 380.063 171.508 379.952 171.015 379.952C170.49 379.952 170.028 380.08 169.63 380.335C169.233 380.586 168.922 380.918 168.7 381.33C168.482 381.737 168.371 382.184 168.366 382.672V384.185C168.366 384.819 168.482 385.364 168.714 385.818C168.946 386.268 169.27 386.614 169.687 386.855C170.104 387.092 170.591 387.21 171.15 387.21C171.524 387.21 171.863 387.158 172.166 387.054C172.469 386.945 172.732 386.786 172.954 386.578C173.177 386.37 173.345 386.112 173.458 385.804L175.859 386.074C175.707 386.708 175.419 387.262 174.992 387.736C174.571 388.205 174.031 388.569 173.373 388.83C172.715 389.085 171.962 389.213 171.115 389.213ZM186.363 380.974L184.019 381.23C183.953 380.993 183.837 380.771 183.671 380.562C183.51 380.354 183.292 380.186 183.018 380.058C182.743 379.93 182.407 379.866 182.009 379.866C181.474 379.866 181.024 379.982 180.66 380.214C180.3 380.446 180.122 380.747 180.127 381.116C180.122 381.434 180.238 381.692 180.475 381.891C180.716 382.089 181.114 382.253 181.668 382.381L183.529 382.778C184.561 383.001 185.328 383.354 185.83 383.837C186.337 384.32 186.592 384.952 186.597 385.733C186.592 386.42 186.391 387.026 185.993 387.551C185.6 388.072 185.054 388.479 184.353 388.773C183.652 389.066 182.847 389.213 181.938 389.213C180.603 389.213 179.528 388.934 178.714 388.375C177.899 387.812 177.414 387.028 177.258 386.024L179.765 385.783C179.878 386.275 180.12 386.647 180.489 386.898C180.858 387.149 181.339 387.274 181.931 387.274C182.542 387.274 183.032 387.149 183.401 386.898C183.775 386.647 183.962 386.337 183.962 385.967C183.962 385.655 183.841 385.397 183.6 385.193C183.363 384.99 182.994 384.833 182.492 384.724L180.631 384.334C179.585 384.116 178.811 383.749 178.309 383.233C177.807 382.712 177.558 382.054 177.563 381.259C177.558 380.586 177.741 380.004 178.11 379.511C178.484 379.014 179.002 378.631 179.665 378.361C180.333 378.086 181.102 377.949 181.974 377.949C183.252 377.949 184.258 378.221 184.992 378.766C185.731 379.31 186.188 380.046 186.363 380.974ZM193.765 378.091V380.08H187.493V378.091H193.765ZM189.042 375.477H191.613V385.719C191.613 386.064 191.665 386.33 191.769 386.514C191.878 386.694 192.02 386.817 192.195 386.884C192.37 386.95 192.564 386.983 192.777 386.983C192.938 386.983 193.085 386.971 193.218 386.947C193.355 386.924 193.459 386.902 193.53 386.884L193.963 388.893C193.826 388.941 193.63 388.993 193.374 389.05C193.123 389.107 192.815 389.14 192.451 389.149C191.807 389.168 191.227 389.071 190.711 388.858C190.194 388.64 189.785 388.304 189.482 387.849C189.184 387.395 189.037 386.827 189.042 386.145V375.477ZM195.515 389V378.091H197.972V379.945H198.1C198.327 379.32 198.704 378.832 199.229 378.482C199.755 378.126 200.382 377.949 201.111 377.949C201.85 377.949 202.473 378.129 202.979 378.489C203.491 378.844 203.85 379.329 204.059 379.945H204.172C204.414 379.339 204.821 378.856 205.394 378.496C205.972 378.131 206.656 377.949 207.447 377.949C208.45 377.949 209.27 378.266 209.904 378.901C210.538 379.535 210.856 380.461 210.856 381.678V389H208.278V382.075C208.278 381.398 208.098 380.903 207.738 380.591C207.378 380.274 206.938 380.115 206.417 380.115C205.796 380.115 205.311 380.309 204.961 380.697C204.615 381.081 204.442 381.58 204.442 382.196V389H201.921V381.969C201.921 381.405 201.751 380.955 201.41 380.619C201.073 380.283 200.633 380.115 200.089 380.115C199.719 380.115 199.383 380.21 199.08 380.399C198.777 380.584 198.536 380.847 198.356 381.188C198.176 381.524 198.086 381.917 198.086 382.366V389H195.515ZM217.894 389.213C216.8 389.213 215.855 388.986 215.06 388.531C214.269 388.072 213.661 387.423 213.234 386.585C212.808 385.742 212.595 384.75 212.595 383.609C212.595 382.487 212.808 381.502 213.234 380.655C213.665 379.803 214.267 379.14 215.038 378.666C215.81 378.188 216.717 377.949 217.759 377.949C218.431 377.949 219.065 378.058 219.662 378.276C220.263 378.489 220.794 378.82 221.253 379.27C221.717 379.72 222.082 380.293 222.347 380.989C222.612 381.68 222.744 382.504 222.744 383.46V384.249H213.803V382.516H220.28C220.275 382.023 220.169 381.585 219.96 381.202C219.752 380.813 219.461 380.508 219.087 380.286C218.717 380.063 218.287 379.952 217.794 379.952C217.269 379.952 216.807 380.08 216.409 380.335C216.011 380.586 215.701 380.918 215.479 381.33C215.261 381.737 215.15 382.184 215.145 382.672V384.185C215.145 384.819 215.261 385.364 215.493 385.818C215.725 386.268 216.049 386.614 216.466 386.855C216.883 387.092 217.37 387.21 217.929 387.21C218.303 387.21 218.642 387.158 218.945 387.054C219.248 386.945 219.51 386.786 219.733 386.578C219.956 386.37 220.124 386.112 220.237 385.804L222.638 386.074C222.486 386.708 222.198 387.262 221.771 387.736C221.35 388.205 220.81 388.569 220.152 388.83C219.494 389.085 218.741 389.213 217.894 389.213ZM227.09 382.608V389H224.519V378.091H226.977V379.945H227.105C227.356 379.334 227.756 378.848 228.305 378.489C228.859 378.129 229.543 377.949 230.358 377.949C231.11 377.949 231.766 378.11 232.325 378.432C232.888 378.754 233.324 379.22 233.632 379.831C233.944 380.442 234.098 381.183 234.093 382.054V389H231.522V382.452C231.522 381.723 231.333 381.152 230.954 380.74C230.58 380.328 230.062 380.122 229.399 380.122C228.949 380.122 228.549 380.222 228.198 380.42C227.853 380.615 227.581 380.896 227.382 381.266C227.188 381.635 227.09 382.082 227.09 382.608ZM241.754 378.091V380.08H235.483V378.091H241.754ZM237.031 375.477H239.602V385.719C239.602 386.064 239.654 386.33 239.759 386.514C239.868 386.694 240.01 386.817 240.185 386.884C240.36 386.95 240.554 386.983 240.767 386.983C240.928 386.983 241.075 386.971 241.208 386.947C241.345 386.924 241.449 386.902 241.52 386.884L241.953 388.893C241.816 388.941 241.619 388.993 241.364 389.05C241.113 389.107 240.805 389.14 240.44 389.149C239.797 389.168 239.217 389.071 238.7 388.858C238.184 388.64 237.775 388.304 237.472 387.849C237.173 387.395 237.027 386.827 237.031 386.145V375.477Z" fill="#295D4E"/>
<rect x="29" y="35" width="87" height="32" rx="16" fill="#F2F9FB"/>
<path d="M46.1729 56V47.36H49.7429C49.8269 47.36 49.9349 47.364 50.0669 47.372C50.1989 47.376 50.3209 47.388 50.4329 47.408C50.9329 47.484 51.3449 47.65 51.6689 47.906C51.9969 48.162 52.2389 48.486 52.3949 48.878C52.5549 49.266 52.6349 49.698 52.6349 50.174C52.6349 50.646 52.5549 51.078 52.3949 51.47C52.2349 51.858 51.9909 52.18 51.6629 52.436C51.3389 52.692 50.9289 52.858 50.4329 52.934C50.3209 52.95 50.1969 52.962 50.0609 52.97C49.9289 52.978 49.8229 52.982 49.7429 52.982H47.6189V56H46.1729ZM47.6189 51.632H49.6829C49.7629 51.632 49.8529 51.628 49.9529 51.62C50.0529 51.612 50.1449 51.596 50.2289 51.572C50.4689 51.512 50.6569 51.406 50.7929 51.254C50.9329 51.102 51.0309 50.93 51.0869 50.738C51.1469 50.546 51.1769 50.358 51.1769 50.174C51.1769 49.99 51.1469 49.802 51.0869 49.61C51.0309 49.414 50.9329 49.24 50.7929 49.088C50.6569 48.936 50.4689 48.83 50.2289 48.77C50.1449 48.746 50.0529 48.732 49.9529 48.728C49.8529 48.72 49.7629 48.716 49.6829 48.716H47.6189V51.632ZM54.797 56V47.36H58.367C58.451 47.36 58.559 47.364 58.691 47.372C58.823 47.376 58.945 47.388 59.057 47.408C59.557 47.484 59.969 47.65 60.293 47.906C60.621 48.162 60.863 48.486 61.019 48.878C61.179 49.266 61.259 49.698 61.259 50.174C61.259 50.878 61.081 51.484 60.725 51.992C60.369 52.496 59.823 52.808 59.087 52.928L58.469 52.982H56.243V56H54.797ZM59.759 56L58.055 52.484L59.525 52.16L61.397 56H59.759ZM56.243 51.632H58.307C58.387 51.632 58.477 51.628 58.577 51.62C58.677 51.612 58.769 51.596 58.853 51.572C59.093 51.512 59.281 51.406 59.417 51.254C59.557 51.102 59.655 50.93 59.711 50.738C59.771 50.546 59.801 50.358 59.801 50.174C59.801 49.99 59.771 49.802 59.711 49.61C59.655 49.414 59.557 49.24 59.417 49.088C59.281 48.936 59.093 48.83 58.853 48.77C58.769 48.746 58.677 48.732 58.577 48.728C58.477 48.72 58.387 48.716 58.307 48.716H56.243V51.632ZM63.7988 56V47.36H65.2448V56H63.7988ZM71.6561 56.18C70.7921 56.18 70.0521 55.992 69.4361 55.616C68.8201 55.236 68.3461 54.708 68.0141 54.032C67.6861 53.356 67.5221 52.572 67.5221 51.68C67.5221 50.788 67.6861 50.004 68.0141 49.328C68.3461 48.652 68.8201 48.126 69.4361 47.75C70.0521 47.37 70.7921 47.18 71.6561 47.18C72.6521 47.18 73.4821 47.43 74.1461 47.93C74.8101 48.426 75.2761 49.096 75.5441 49.94L74.0861 50.342C73.9181 49.778 73.6321 49.338 73.2281 49.022C72.8241 48.702 72.3001 48.542 71.6561 48.542C71.0761 48.542 70.5921 48.672 70.2041 48.932C69.8201 49.192 69.5301 49.558 69.3341 50.03C69.1421 50.498 69.0441 51.048 69.0401 51.68C69.0401 52.312 69.1361 52.864 69.3281 53.336C69.5241 53.804 69.8161 54.168 70.2041 54.428C70.5921 54.688 71.0761 54.818 71.6561 54.818C72.3001 54.818 72.8241 54.658 73.2281 54.338C73.6321 54.018 73.9181 53.578 74.0861 53.018L75.5441 53.42C75.2761 54.264 74.8101 54.936 74.1461 55.436C73.4821 55.932 72.6521 56.18 71.6561 56.18ZM77.9415 56V47.36H79.3875V56H77.9415ZM82.1448 56V47.36H83.6088L87.6168 53.45V47.36H89.0808V56H87.6168L83.6088 49.91V56H82.1448ZM95.282 56.18C94.722 56.18 94.196 56.082 93.704 55.886C93.216 55.686 92.786 55.394 92.414 55.01C92.046 54.626 91.758 54.156 91.55 53.6C91.342 53.04 91.238 52.4 91.238 51.68C91.238 50.736 91.414 49.93 91.766 49.262C92.118 48.59 92.6 48.076 93.212 47.72C93.824 47.36 94.514 47.18 95.282 47.18C96.346 47.18 97.188 47.428 97.808 47.924C98.432 48.416 98.854 49.108 99.074 50L97.598 50.234C97.434 49.722 97.166 49.314 96.794 49.01C96.422 48.702 95.948 48.548 95.372 48.548C94.792 48.54 94.31 48.666 93.926 48.926C93.542 49.186 93.252 49.552 93.056 50.024C92.864 50.496 92.768 51.048 92.768 51.68C92.768 52.312 92.864 52.862 93.056 53.33C93.248 53.794 93.536 54.156 93.92 54.416C94.308 54.676 94.792 54.81 95.372 54.818C95.808 54.822 96.19 54.744 96.518 54.584C96.846 54.42 97.114 54.174 97.322 53.846C97.53 53.514 97.67 53.1 97.742 52.604H96.218V51.47H99.278C99.286 51.534 99.292 51.628 99.296 51.752C99.3 51.876 99.302 51.95 99.302 51.974C99.302 52.79 99.14 53.516 98.816 54.152C98.496 54.784 98.036 55.28 97.436 55.64C96.836 56 96.118 56.18 95.282 56.18Z" fill="#295D4E"/>
<rect x="225.5" y="35.5" width="128.942" height="31" rx="15.5" fill="url(#paint0_linear_1021_1705)"/>
<path d="M242.306 56V47.36H245.06C245.132 47.36 245.274 47.362 245.486 47.366C245.702 47.37 245.91 47.384 246.11 47.408C246.794 47.496 247.372 47.74 247.844 48.14C248.32 48.536 248.68 49.042 248.924 49.658C249.168 50.274 249.29 50.948 249.29 51.68C249.29 52.412 249.168 53.086 248.924 53.702C248.68 54.318 248.32 54.826 247.844 55.226C247.372 55.622 246.794 55.864 246.11 55.952C245.914 55.976 245.708 55.99 245.492 55.994C245.276 55.998 245.132 56 245.06 56H242.306ZM243.776 54.638H245.06C245.18 54.638 245.332 54.634 245.516 54.626C245.704 54.618 245.87 54.6 246.014 54.572C246.422 54.496 246.754 54.314 247.01 54.026C247.266 53.738 247.454 53.388 247.574 52.976C247.698 52.564 247.76 52.132 247.76 51.68C247.76 51.212 247.698 50.772 247.574 50.36C247.45 49.948 247.258 49.602 246.998 49.322C246.742 49.042 246.414 48.864 246.014 48.788C245.87 48.756 245.704 48.738 245.516 48.734C245.332 48.726 245.18 48.722 245.06 48.722H243.776V54.638ZM250.834 56L253.558 47.36H255.676L258.4 56H256.912L254.44 48.248H254.764L252.322 56H250.834ZM252.352 54.128V52.778H256.888V54.128H252.352ZM260.565 56V47.36H262.011V56H260.565ZM264.888 56V47.36H266.334V54.644H270.15V56H264.888ZM273.031 56V52.46L270.091 47.36H271.777L273.763 50.804L275.743 47.36H277.429L274.495 52.46V56H273.031ZM284.053 56L281.329 47.36H282.817L285.097 54.596L287.407 47.36H288.895L286.171 56H284.053ZM290.877 56V47.36H292.323V56H290.877ZM298.278 56.18C297.646 56.18 297.076 56.07 296.568 55.85C296.064 55.63 295.648 55.316 295.32 54.908C294.996 54.496 294.79 54.008 294.702 53.444L296.202 53.216C296.33 53.728 296.592 54.124 296.988 54.404C297.388 54.684 297.848 54.824 298.368 54.824C298.676 54.824 298.966 54.776 299.238 54.68C299.51 54.584 299.73 54.444 299.898 54.26C300.07 54.076 300.156 53.85 300.156 53.582C300.156 53.462 300.136 53.352 300.096 53.252C300.056 53.148 299.996 53.056 299.916 52.976C299.84 52.896 299.74 52.824 299.616 52.76C299.496 52.692 299.356 52.634 299.196 52.586L296.964 51.926C296.772 51.87 296.564 51.796 296.34 51.704C296.12 51.608 295.91 51.478 295.71 51.314C295.514 51.146 295.352 50.934 295.224 50.678C295.1 50.418 295.038 50.098 295.038 49.718C295.038 49.162 295.178 48.696 295.458 48.32C295.742 47.94 296.122 47.656 296.598 47.468C297.078 47.28 297.61 47.188 298.194 47.192C298.786 47.196 299.314 47.298 299.778 47.498C300.242 47.694 300.63 47.98 300.942 48.356C301.254 48.732 301.474 49.186 301.602 49.718L300.048 49.988C299.984 49.684 299.86 49.426 299.676 49.214C299.496 48.998 299.274 48.834 299.01 48.722C298.75 48.61 298.472 48.55 298.176 48.542C297.888 48.538 297.62 48.582 297.372 48.674C297.128 48.762 296.93 48.89 296.778 49.058C296.63 49.226 296.556 49.422 296.556 49.646C296.556 49.858 296.62 50.032 296.748 50.168C296.876 50.3 297.034 50.406 297.222 50.486C297.414 50.562 297.608 50.626 297.804 50.678L299.352 51.11C299.564 51.166 299.802 51.242 300.066 51.338C300.33 51.434 300.584 51.568 300.828 51.74C301.072 51.912 301.272 52.138 301.428 52.418C301.588 52.698 301.668 53.054 301.668 53.486C301.668 53.934 301.574 54.328 301.386 54.668C301.202 55.004 300.952 55.284 300.636 55.508C300.32 55.732 299.958 55.9 299.55 56.012C299.146 56.124 298.722 56.18 298.278 56.18ZM304.047 56V47.36H305.493V56H304.047ZM310.326 56V48.716H307.53V47.36H314.568V48.716H311.772V56H310.326ZM319.685 56.18C319.053 56.18 318.483 56.07 317.975 55.85C317.471 55.63 317.055 55.316 316.727 54.908C316.403 54.496 316.197 54.008 316.109 53.444L317.609 53.216C317.737 53.728 317.999 54.124 318.395 54.404C318.795 54.684 319.255 54.824 319.775 54.824C320.083 54.824 320.373 54.776 320.645 54.68C320.917 54.584 321.137 54.444 321.305 54.26C321.477 54.076 321.563 53.85 321.563 53.582C321.563 53.462 321.543 53.352 321.503 53.252C321.463 53.148 321.403 53.056 321.323 52.976C321.247 52.896 321.147 52.824 321.023 52.76C320.903 52.692 320.763 52.634 320.603 52.586L318.371 51.926C318.179 51.87 317.971 51.796 317.747 51.704C317.527 51.608 317.317 51.478 317.117 51.314C316.921 51.146 316.759 50.934 316.631 50.678C316.507 50.418 316.445 50.098 316.445 49.718C316.445 49.162 316.585 48.696 316.865 48.32C317.149 47.94 317.529 47.656 318.005 47.468C318.485 47.28 319.017 47.188 319.601 47.192C320.193 47.196 320.721 47.298 321.185 47.498C321.649 47.694 322.037 47.98 322.349 48.356C322.661 48.732 322.881 49.186 323.009 49.718L321.455 49.988C321.391 49.684 321.267 49.426 321.083 49.214C320.903 48.998 320.681 48.834 320.417 48.722C320.157 48.61 319.879 48.55 319.583 48.542C319.295 48.538 319.027 48.582 318.779 48.674C318.535 48.762 318.337 48.89 318.185 49.058C318.037 49.226 317.963 49.422 317.963 49.646C317.963 49.858 318.027 50.032 318.155 50.168C318.283 50.3 318.441 50.406 318.629 50.486C318.821 50.562 319.015 50.626 319.211 50.678L320.759 51.11C320.971 51.166 321.209 51.242 321.473 51.338C321.737 51.434 321.991 51.568 322.235 51.74C322.479 51.912 322.679 52.138 322.835 52.418C322.995 52.698 323.075 53.054 323.075 53.486C323.075 53.934 322.981 54.328 322.793 54.668C322.609 55.004 322.359 55.284 322.043 55.508C321.727 55.732 321.365 55.9 320.957 56.012C320.553 56.124 320.129 56.18 319.685 56.18Z" fill="white"/>
<path d="M332 49.2571L335.471 52.7431L338.942 49.2571" stroke="white" stroke-width="1.5" stroke-linecap="round" stroke-linejoin="round"/>
<rect x="225.5" y="35.5" width="128.942" height="31" rx="15.5" stroke="url(#paint1_linear_1021_1705)"/>
<defs>
<linearGradient id="paint0_linear_1021_1705" x1="233.962" y1="35.7182" x2="237.88" y2="73.6516" gradientUnits="userSpaceOnUse">
<stop stop-color="#252525"/>
<stop offset="1" stop-color="#101010"/>
</linearGradient>
<linearGradient id="paint1_linear_1021_1705" x1="229.929" y1="35" x2="232.038" y2="70.4478" gradientUnits="userSpaceOnUse">
<stop stop-color="#3E3E3E"/>
<stop offset="1" stop-color="#3E3E3E" stop-opacity="0"/>
</linearGradient>
</defs>
</svg>
