<svg width="35" height="35" viewBox="0 0 35 35" fill="none" xmlns="http://www.w3.org/2000/svg">
<rect x="1" y="2.5" width="30" height="30" rx="4" fill="#295D4E"/>
<path d="M17.82 8.50001C17.82 8.29956 17.7003 8.11849 17.5159 8.03997C17.3314 7.96145 17.1179 8.00066 16.9734 8.1396L15.1955 9.84917C12.5483 12.3946 10.3114 15.3348 8.56461 18.5651C8.52348 18.6378 8.5 18.7217 8.5 18.8112C8.5 19.0873 8.72386 19.3112 9 19.3112H13.31V26.5C13.31 26.698 13.4268 26.8774 13.608 26.9574C13.7891 27.0374 14.0003 27.003 14.1467 26.8696L14.9422 26.145C17.7269 23.6083 20.0902 20.6446 21.9432 17.365L22.4353 16.4942C22.5228 16.3394 22.5215 16.1498 22.4318 15.9962C22.3422 15.8426 22.1778 15.7482 22 15.7482H17.82V8.50001Z" fill="#F2F9FB"/>
</svg>
